<?xml version="1.0" encoding="UTF-8"?>
<svg id="Layer_1" data-name="Layer 1" xmlns="http://www.w3.org/2000/svg" viewBox="0 0 635.53 606.2">
  <defs>
    <style>
      .cls-1 {
        fill: #603f83;
      }

      .cls-2 {
        fill: #0e436f;
      }
    </style>
  </defs>
  <g>
    <path class="cls-1" d="M486.73,352.25v-24.14h36.58v-18.39h-57.76v37.12c7.06,1.7,14.11,3.48,21.18,5.41Z"/>
    <path class="cls-1" d="M219.09,335.67v-7.56h10.21c4.61,0,7.61,1.54,9.25,4.85,7.31-.9,14.63-1.66,21.96-2.29-2.58-14.02-12.16-20.95-30.63-20.95h-31.96v29.59c7.05-1.34,14.11-2.54,21.18-3.64Z"/>
    <path class="cls-1" d="M140.92,352.96v-24.85h10.21c7.51,0,10.78,4.05,10.78,13.24v5.95c7.05-1.78,14.11-3.44,21.18-4.97v-3c0-19.86-9.43-29.61-31.38-29.61h-31.96v49.75c7.05-2.29,14.11-4.47,21.18-6.51Z"/>
    <path class="cls-1" d="M410.15,335.89c.97-6.63,4.91-9.25,10.73-9.25,6.74,0,10.97,3.49,10.97,12.69v.28c6.67,1.26,13.35,2.62,20.03,4.09v-3.08c0-20.59-10.78-32.36-31.58-32.36-18.08,0-28.58,8.91-31.02,24.77,6.95.84,13.91,1.8,20.87,2.87Z"/>
    <path class="cls-1" d="M296.5,328.62v-18.9h-21.18v19.86c7.05-.44,14.11-.76,21.18-.96Z"/>
    <path class="cls-1" d="M333.08,328.71v-.61h11.94c2.44,0,4.52.45,6.19,1.44,8.25.5,16.51,1.17,24.79,2-3.03-14.2-13.14-21.83-30.59-21.83h-33.5v18.66c7.05-.02,14.11.11,21.18.34Z"/>
    <path class="cls-2" d="M169.41,367.22c5.89-2.64,9.75-6.93,11.82-13-26.91,6.03-53.66,13.92-80.2,23.66h18.7v57.92h33.31c21.18,0,32.15-10.66,32.15-30.53v-10.48c0-13.61-4.43-23.35-15.79-27.58ZM164.02,404.73c0,9.56-3.85,12.69-10.98,12.69h-12.13v-39.54h9.43c9.63,0,13.67,3.68,13.67,15.63v11.22Z"/>
    <path class="cls-2" d="M515.8,379.72v-.1h18.69l-15.53-5.86c-17.83-5.89-35.64-11.03-53.41-15.39v77.44h57.76v-18.39h-36.58v-37.7h29.07Z"/>
    <path class="cls-2" d="M261.45,400.32c0-13.42-3.47-23.17-14.05-27.4,9.43-4.23,13.86-12.87,13.86-26.11v-5c-7.07.61-14.13,1.35-21.18,2.22v7.38c0,10.3-4.81,13.61-12.71,13.61h-8.28v-18.04c-7.07,1.12-14.13,2.38-21.18,3.75v85.08h21.18v-52.41h7.32c9.63,0,13.86,4.41,13.86,16.37v20.23c0,10.48.77,12.5,1.93,15.81h21.56c-2.12-4.78-2.31-9.38-2.31-15.63v-19.86Z"/>
    <path class="cls-2" d="M422.23,382.48h9.63v23.72c0,9.19-4.23,12.5-10.97,12.5s-10.98-3.31-10.98-12.5v-59.05c-7.07-1.11-14.13-2.08-21.18-2.95v60.71c0,20.59,10.78,32.36,31.58,32.36s31.58-11.77,31.58-32.36v-40.82h-29.65v18.39Z"/>
    <path class="cls-2" d="M355.8,341v63.91c0,9.19-4.04,12.5-10.78,12.5h-11.94v-77.54c-7.07-.23-14.13-.36-21.18-.34v96.27h33.5c21.18,0,31.58-11.22,31.58-31.81v-61.12c-7.07-.73-14.13-1.38-21.18-1.87Z"/>
    <path class="cls-2" d="M275.32,340.75v95.05h21.18v-96.02c-7.07.2-14.13.52-21.18.97Z"/>
  </g>
  <g>
    <path class="cls-1" d="M201.2,470.73h-13.58v-8h36.99v8h-13.58v34.44h-9.82v-34.44Z"/>
    <path class="cls-1" d="M258.75,496.07h-19.71l-3.76,9.1h-10.07l18.92-42.45h9.7l18.98,42.45h-10.31l-3.76-9.1ZM255.66,488.62l-6.73-16.25-6.73,16.25h13.46Z"/>
    <path class="cls-1" d="M280.29,462.72h9.82v34.44h21.29v8h-31.11v-42.45Z"/>
    <path class="cls-1" d="M352.82,497.29v7.88h-32.87v-42.45h32.08v7.88h-22.31v9.22h19.71v7.64h-19.71v9.82h23.1Z"/>
    <path class="cls-1" d="M402.61,462.72v42.45h-8.07l-21.16-25.77v25.77h-9.7v-42.45h8.13l21.1,25.77v-25.77h9.7Z"/>
    <path class="cls-1" d="M424.51,470.73h-13.58v-8h36.99v8h-13.58v34.44h-9.82v-34.44Z"/>
  </g>
  <g>
    <g>
      <path class="cls-2" d="M299.24,202.43v69.74c5.99,1.33,12.2,2.05,18.59,2.05s12.6-.72,18.59-2.05v-69.74c-6.16-.74-12.4-1.18-18.59-1.18s-12.43.43-18.59,1.18Z"/>
      <path class="cls-2" d="M283.92,204.9l-2.94,60.96c-18.59-8.87-33.45-24.24-41.68-43.19-9.42,1.74-18.65,3.71-18.65,3.71,23.41-11.48,36.88-14.66,36.88-14.66,7.96-2.49,16.91-4.94,26.39-6.84Z"/>
      <path class="cls-2" d="M414.89,226.4s-9.15-1.96-18.53-3.69c-8.24,18.93-23.09,34.28-41.66,43.17l-2.94-60.96c9.66,1.94,18.81,4.44,26.89,6.99,2.92.77,15.8,4.46,36.25,14.5Z"/>
    </g>
    <g>
      <path class="cls-1" d="M319.13,145.68c9.19-13.18,17.95-26.55,25.72-40.55-8.29-2.65-17.11-4.09-26.28-4.09-8.69,0-17.07,1.3-24.97,3.69,7.25,13.91,15.51,27.24,24.16,40.35.31.51.74,1.21,1.37.61ZM313,121.55c-1.57-3.08-.34-6.84,2.73-8.41,3.08-1.57,6.84-.34,8.41,2.73,1.57,3.08.34,6.84-2.73,8.41-3.08,1.57-6.84.34-8.41-2.73Z"/>
      <path class="cls-1" d="M280.46,180.02c-2.87.52-29.65,6.02-48.02,9.68.14,4.95.72,9.8,1.66,14.51,56.35-20.39,112.63-20.2,168.83.56,1.01-4.89,1.63-9.91,1.78-15.06-18.37-3.66-45.16-9.16-48.02-9.68-11.15-2.07-17.83-14.31-13.33-24.81,1.52-3.35,12.41-22.8,16.19-29.76.03-.03.07-.05.13-.05.08.01.06-.01.27.09.35.2.79.52,1.16.9,2.98,3,1.75,6.39-.08,9.64-2.31,4.63-10.55,21.31-12.05,24.28-1.97,3.74-.3,8.72,3.74,10.22,2.59.82,32.55,4.22,51.43,6.4-3.56-29.88-22.38-55.06-48.47-67.52-10.99,12.04-21,24.85-30.67,38.03,0,0-.69.95-.69.95-.99,1.58-2.71,2.92-4.62,3.17-2.42.44-5.05-.7-6.41-2.75,0,0-.33-.48-.33-.48l-2.65-3.85c-8.73-12.27-17.75-24.27-27.65-35.6-26.69,12.26-46.03,37.73-49.64,68.05,18.89-2.18,48.84-5.58,51.43-6.4,4.04-1.5,5.71-6.48,3.74-10.22-1.5-2.97-9.74-19.66-12.05-24.28-1.83-3.25-3.06-6.63-.08-9.64.37-.38.81-.7,1.16-.9.22-.1.19-.08.27-.09.05,0,.09.02.13.05,3.78,6.97,14.67,26.41,16.19,29.76,4.5,10.5-2.18,22.74-13.33,24.81ZM369.46,150.24c3.41.54,5.74,3.74,5.2,7.16-.54,3.41-3.74,5.74-7.16,5.2s-5.74-3.74-5.2-7.16c.54-3.41,3.74-5.74,7.16-5.2ZM274.85,155.44c.54,3.41-1.79,6.62-5.2,7.16s-6.62-1.79-7.16-5.2c-.54-3.41,1.79-6.62,5.2-7.16,3.41-.54,6.62,1.79,7.16,5.2Z"/>
    </g>
  </g>
</svg>