<?xml version="1.0" encoding="UTF-8"?>
<svg id="Layer_2" data-name="Layer 2" xmlns="http://www.w3.org/2000/svg" viewBox="0 0 357.51 272.25">
  <defs>
    <style>
      .cls-1 {
        fill: #fff;
      }

      .cls-2 {
        fill: #b3b3b3;
      }
    </style>
  </defs>
  <g id="Layer_1-2" data-name="Layer 1">
    <g>
      <g>
        <path class="cls-2" d="M227.5,76.97c-6.53-1.71-13.44-3.27-20.57-4.56l-1.29-26.73c5.37,10.11,12.5,21.04,21.86,31.29Z"/>
        <path class="cls-2" d="M153.74,45.68v.34l-1.28,26.38c-7.13,1.31-14.04,2.86-20.57,4.58,9.36-10.25,16.5-21.19,21.85-31.29Z"/>
        <path class="cls-2" d="M248.43,83.81c.88-4.44,1.35-9.02,1.35-13.72C249.78,31.38,218.4,0,179.69,0s-70.09,31.38-70.09,70.09c0,4.7.47,9.28,1.35,13.72,29.75-17.48,40.26-50.86,42.44-59.06h11.08v45.86c5.02-.56,10.13-.88,15.22-.88s10.19.32,15.22.88V24.75h11.08c2.18,8.19,12.69,41.57,42.45,59.06Z"/>
        <path class="cls-1" d="M164.47,81.42v57.09c4.9,1.09,9.99,1.68,15.22,1.68s10.32-.59,15.22-1.68v-57.09c-5.04-.61-10.15-.96-15.22-.96s-10.17.35-15.22.96Z"/>
        <path class="cls-1" d="M151.93,83.44l-2.41,49.91c-15.22-7.26-27.38-19.84-34.12-35.35-7.71,1.42-15.27,3.04-15.27,3.04,19.16-9.4,30.19-12,30.19-12,6.52-2.04,13.84-4.04,21.61-5.6Z"/>
        <path class="cls-1" d="M259.14,101.04s-7.49-1.6-15.17-3.02c-6.74,15.49-18.9,28.06-34.11,35.34l-2.41-49.91c7.91,1.58,15.4,3.64,22.01,5.72,2.39.63,12.94,3.65,29.68,11.87Z"/>
      </g>
      <g>
        <path class="cls-2" d="M318.3,202.47v-19.82h30.02v-15.09h-47.41v30.46c5.79,1.39,11.58,2.86,17.38,4.44Z"/>
        <path class="cls-2" d="M98.65,188.86v-6.2h8.38c3.78,0,6.25,1.27,7.59,3.98,6-.74,12.01-1.36,18.02-1.88-2.12-11.51-9.98-17.19-25.14-17.19h-26.23v24.28c5.78-1.1,11.58-2.09,17.38-2.99Z"/>
        <path class="cls-2" d="M32.73,203.05v-20.39h10.14c6.16,0,8.85,3.32,8.85,10.87v4.88c5.78-1.46,11.58-2.82,17.38-4.08v-2.46c0-16.3-7.74-24.3-25.76-24.3H15.35v40.83c5.78-1.88,11.58-3.67,17.38-5.34Z"/>
        <path class="cls-2" d="M255.46,189.04c.8-5.44,4.03-7.59,8.8-7.59,5.53,0,9.01,2.87,9.01,10.41v.23c5.47,1.03,10.95,2.15,16.44,3.36v-2.53c0-16.9-8.85-26.56-25.91-26.56-14.84,0-23.46,7.31-25.46,20.33,5.7.69,11.41,1.48,17.13,2.36Z"/>
        <path class="cls-2" d="M162.18,183.07v-15.51h-17.38v16.3c5.79-.36,11.58-.63,17.38-.79Z"/>
        <path class="cls-2" d="M192.2,183.15v-.5h9.8c2,0,3.71.37,5.08,1.19,6.77.41,13.55.96,20.34,1.64-2.48-11.65-10.78-17.91-25.1-17.91h-27.49v15.31c5.79-.01,11.58.09,17.38.28Z"/>
        <path class="cls-1" d="M57.88,214.75c4.83-2.17,8-5.69,9.7-10.67-22.09,4.95-45.8,11.42-67.59,19.42h15.35v47.54h29.1c17.38,0,26.39-8.75,26.39-25.05v-8.6c0-11.17-3.63-19.17-12.96-22.64ZM53.46,245.54c0,7.85-3.16,10.41-9.01,10.41h-11.72v-32.45h9.51c7.9,0,11.22,3.02,11.22,12.83v9.21Z"/>
        <path class="cls-1" d="M342.16,225.02v-.08h15.34l-12.75-4.81c-14.64-4.83-29.25-9.05-43.84-12.63v63.55h47.41v-15.09h-30.02v-30.94h23.86Z"/>
        <path class="cls-1" d="M133.41,241.92c0-11.02-2.84-19.01-11.53-22.49,7.74-3.47,11.38-10.56,11.38-21.43v-4.1c-5.8.5-11.6,1.11-17.38,1.82v6.05c0,8.45-3.95,11.17-10.43,11.17h-6.8v-14.8c-5.8.92-11.6,1.95-17.38,3.08v69.83h17.38v-43.01h6.01c7.9,0,11.38,3.62,11.38,13.43v16.6c0,8.6.63,10.26,1.58,12.98h17.7c-1.74-3.92-1.9-7.7-1.9-12.83v-16.3Z"/>
        <path class="cls-1" d="M265.37,227.28h7.9v19.47c0,7.55-3.48,10.26-9.01,10.26s-9.01-2.72-9.01-10.26v-48.46c-5.8-.91-11.59-1.71-17.38-2.42v49.82c0,16.9,8.85,26.56,25.91,26.56s25.91-9.66,25.91-26.56v-33.5h-24.33v15.09Z"/>
        <path class="cls-1" d="M210.85,193.24v52.45c0,7.55-3.32,10.26-8.85,10.26h-9.8v-63.64c-5.8-.19-11.6-.29-17.38-.28v79.01h27.49c17.38,0,25.91-9.21,25.91-26.11v-50.16c-5.8-.6-11.59-1.14-17.38-1.54Z"/>
        <path class="cls-1" d="M144.8,193.03v78.01h17.38v-78.81c-5.8.16-11.6.43-17.38.8Z"/>
      </g>
    </g>
  </g>
</svg>